<svg width="358" height="758" viewBox="0 0 358 758" fill="none" xmlns="http://www.w3.org/2000/svg">
<path d="M4 702C4 728.51 25.4903 750 52 750H306C332.51 750 354 728.51 354 702V48C354 21.4904 332.51 0 306 0H52C25.4903 0 4 21.4904 4 48V702Z" fill="#0D0D0D"/>
<path d="M41 156C41 151.582 44.5817 148 49 148H103C107.418 148 111 151.582 111 156C111 160.418 107.418 164 103 164H49C44.5817 164 41 160.418 41 156Z" fill="#FB0165"/>
<path d="M126 156C126 151.582 129.582 148 134 148H224C228.418 148 232 151.582 232 156C232 160.418 228.418 164 224 164H134C129.582 164 126 160.418 126 156Z" fill="#D10F66"/>
<path d="M124 24C124 20.6863 126.534 18 129.66 18H193.34C196.466 18 199 20.6863 199 24C199 27.3137 196.466 30 193.34 30H129.66C126.534 30 124 27.3137 124 24Z" fill="#D10F66"/>
<path d="M40 194C40 190.686 42.6863 188 46 188H130C133.314 188 136 190.686 136 194C136 197.314 133.314 200 130 200H46C42.6863 200 40 197.314 40 194Z" fill="#DEDEDE"/>
<path d="M40 222C40 218.686 42.6863 216 46 216H175C178.314 216 181 218.686 181 222C181 225.314 178.314 228 175 228H46C42.6863 228 40 225.314 40 222Z" fill="#DEDEDE"/>
<path d="M152 194C152 190.686 154.686 188 158 188H258C261.314 188 264 190.686 264 194C264 197.314 261.314 200 258 200H158C154.686 200 152 197.314 152 194Z" fill="#DEDEDE"/>
<path d="M281.269 148.326C281.732 148.925 282.149 149.566 282.509 150.246C284.482 150.567 285.674 151.225 285.612 152.211C285.548 153.224 279.461 156.092 271.048 157.993C271.04 157.994 271.033 157.995 271.025 157.997C262.612 159.898 255.883 159.924 255.391 159.038C254.91 158.174 255.704 157.067 257.348 155.929C257.38 155.16 257.479 154.403 257.641 153.663C253.242 155.749 250.622 158.076 251.045 159.946C251.986 164.114 261.2 164.533 271.941 162.148C271.948 162.146 271.955 162.144 271.962 162.143C271.976 162.139 271.991 162.137 272.005 162.134C282.727 159.671 290.868 155.331 289.926 151.163C289.504 149.294 286.138 148.319 281.269 148.326Z" fill="#FB0165"/>
<path d="M270.702 156.607C270.702 156.606 270.703 156.606 270.703 156.606C275.63 155.493 279.602 154.073 282.028 152.969C281.999 152.806 281.967 152.644 281.931 152.483C280.489 146.099 274.144 142.092 267.76 143.534C261.375 144.977 257.37 151.322 258.812 157.705C258.847 157.867 258.889 158.026 258.932 158.186C261.596 158.14 265.787 157.717 270.702 156.607Z" fill="#FB0165"/>
<path d="M272.332 163.523H272.331L272.299 163.531L272.264 163.539C268.935 164.278 265.743 164.747 262.895 164.929C265.639 167.261 269.404 168.32 273.186 167.466C276.967 166.612 279.911 164.036 281.386 160.753C278.737 161.812 275.655 162.761 272.332 163.523Z" fill="#FB0165"/>
<path d="M41 330C41 325.582 44.5817 322 49 322H103C107.418 322 111 325.582 111 330C111 334.418 107.418 338 103 338H49C44.5817 338 41 334.418 41 330Z" fill="#FB0165"/>
<path d="M126 330C126 325.582 129.582 322 134 322H224C228.418 322 232 325.582 232 330C232 334.418 228.418 338 224 338H134C129.582 338 126 334.418 126 330Z" fill="#D10F66"/>
<path d="M40 368C40 364.686 42.6863 362 46 362H130C133.314 362 136 364.686 136 368C136 371.314 133.314 374 130 374H46C42.6863 374 40 371.314 40 368Z" fill="#DEDEDE"/>
<path d="M40 396C40 392.686 42.6863 390 46 390H175C178.314 390 181 392.686 181 396C181 399.314 178.314 402 175 402H46C42.6863 402 40 399.314 40 396Z" fill="#DEDEDE"/>
<path d="M152 368C152 364.686 154.686 362 158 362H258C261.314 362 264 364.686 264 368C264 371.314 261.314 374 258 374H158C154.686 374 152 371.314 152 368Z" fill="#DEDEDE"/>
<path d="M281.269 322.326C281.732 322.925 282.149 323.566 282.509 324.246C284.482 324.567 285.674 325.225 285.612 326.211C285.548 327.224 279.461 330.092 271.048 331.993C271.04 331.994 271.033 331.995 271.025 331.997C262.612 333.898 255.883 333.924 255.391 333.038C254.91 332.174 255.704 331.067 257.348 329.929C257.38 329.16 257.479 328.403 257.641 327.663C253.242 329.749 250.622 332.076 251.045 333.946C251.986 338.114 261.2 338.533 271.941 336.148C271.948 336.146 271.955 336.144 271.962 336.143C271.976 336.139 271.991 336.137 272.005 336.134C282.727 333.671 290.868 329.331 289.926 325.163C289.504 323.294 286.138 322.319 281.269 322.326Z" fill="#FB0165"/>
<path d="M270.702 330.607C270.702 330.606 270.703 330.606 270.703 330.606C275.63 329.493 279.602 328.073 282.028 326.969C281.999 326.806 281.967 326.644 281.931 326.483C280.489 320.099 274.144 316.092 267.76 317.534C261.375 318.977 257.37 325.322 258.812 331.705C258.847 331.867 258.889 332.026 258.932 332.186C261.596 332.14 265.787 331.717 270.702 330.607Z" fill="#FB0165"/>
<path d="M272.332 337.523H272.331L272.299 337.531L272.264 337.539C268.935 338.278 265.743 338.747 262.895 338.929C265.639 341.261 269.404 342.32 273.186 341.466C276.967 340.612 279.911 338.036 281.386 334.753C278.737 335.812 275.655 336.761 272.332 337.523Z" fill="#FB0165"/>
<path d="M38 491C38 486.582 41.5817 483 46 483H100C104.418 483 108 486.582 108 491C108 495.418 104.418 499 100 499H46C41.5817 499 38 495.418 38 491Z" fill="#FB0165"/>
<path d="M123 491C123 486.582 126.582 483 131 483H221C225.418 483 229 486.582 229 491C229 495.418 225.418 499 221 499H131C126.582 499 123 495.418 123 491Z" fill="#D10F66"/>
<path d="M37 529C37 525.686 39.6863 523 43 523H127C130.314 523 133 525.686 133 529C133 532.314 130.314 535 127 535H43C39.6863 535 37 532.314 37 529Z" fill="#DEDEDE"/>
<path d="M37 557C37 553.686 39.6863 551 43 551H172C175.314 551 178 553.686 178 557C178 560.314 175.314 563 172 563H43C39.6863 563 37 560.314 37 557Z" fill="#DEDEDE"/>
<path d="M149 529C149 525.686 151.686 523 155 523H255C258.314 523 261 525.686 261 529C261 532.314 258.314 535 255 535H155C151.686 535 149 532.314 149 529Z" fill="#DEDEDE"/>
<path d="M278.269 483.326C278.732 483.925 279.149 484.566 279.509 485.246C281.482 485.567 282.674 486.225 282.612 487.211C282.548 488.224 276.461 491.092 268.048 492.993C268.04 492.994 268.033 492.995 268.025 492.997C259.612 494.898 252.883 494.924 252.391 494.038C251.91 493.174 252.704 492.067 254.348 490.929C254.38 490.16 254.479 489.403 254.641 488.663C250.242 490.749 247.622 493.076 248.045 494.946C248.986 499.114 258.2 499.533 268.941 497.148C268.948 497.146 268.955 497.144 268.962 497.143C268.976 497.139 268.991 497.137 269.005 497.134C279.727 494.671 287.868 490.331 286.926 486.163C286.504 484.294 283.138 483.319 278.269 483.326Z" fill="#FB0165"/>
<path d="M267.702 491.607C267.702 491.606 267.703 491.606 267.703 491.606C272.63 490.493 276.602 489.073 279.028 487.969C278.999 487.806 278.967 487.644 278.931 487.483C277.489 481.099 271.144 477.092 264.76 478.534C258.375 479.977 254.37 486.322 255.812 492.705C255.847 492.867 255.889 493.026 255.932 493.186C258.596 493.14 262.787 492.717 267.702 491.607Z" fill="#FB0165"/>
<path d="M269.332 498.523H269.331L269.299 498.531L269.264 498.539C265.935 499.278 262.743 499.747 259.895 499.929C262.639 502.261 266.404 503.32 270.186 502.466C273.967 501.612 276.911 499.036 278.386 495.753C275.737 496.812 272.655 497.761 269.332 498.523Z" fill="#FB0165"/>
<path d="M226 30C222.686 30 220 27.3138 220 24C220 20.6862 222.686 18 226 18C229.314 18 232 20.6862 232 24C232 27.3138 229.314 30 226 30Z" fill="#D10F66"/>
<g filter="url(#filter0_d_1_578)">
<path d="M4 684H354V702C354 728.51 332.51 750 306 750H52C25.4903 750 4 728.51 4 702V684Z" fill="#FB0165"/>
</g>
<rect x="294" y="707" width="20" height="4" rx="2" fill="black"/>
<rect x="294" y="713" width="20" height="4" rx="2" fill="black"/>
<rect x="294" y="719" width="20" height="4" rx="2" fill="black"/>
<ellipse cx="178.5" cy="717" rx="16.5" ry="17" fill="black"/>
<path d="M72.2693 709.326C72.7323 709.925 73.1489 710.566 73.5095 711.246C75.4816 711.567 76.6741 712.225 76.6123 713.211C76.548 714.224 70.4614 717.092 62.048 718.993C62.0397 718.994 62.0325 718.995 62.0254 718.997C53.612 720.898 46.8826 720.924 46.3911 720.038C45.9102 719.174 46.7041 718.067 48.3478 716.929C48.3799 716.16 48.4787 715.403 48.6406 714.663C44.2417 716.749 41.622 719.076 42.0446 720.946C42.986 725.114 52.2004 725.533 62.9406 723.148C62.9478 723.146 62.955 723.144 62.9621 723.143C62.9764 723.139 62.9906 723.137 63.0049 723.134C73.7273 720.671 81.8681 716.331 80.9255 712.163C80.5042 710.294 77.1384 709.319 72.2693 709.326Z" fill="black"/>
<path d="M61.7017 717.607C61.7017 717.606 61.7029 717.606 61.7029 717.606C66.6303 716.493 70.6019 715.073 73.0276 713.969C72.999 713.806 72.9668 713.644 72.9311 713.483C71.4886 707.099 65.1437 703.092 58.7596 704.534C52.3755 705.977 48.3704 712.322 49.8117 718.705C49.8475 718.867 49.8891 719.026 49.9319 719.186C52.5956 719.14 56.7874 718.717 61.7017 717.607Z" fill="black"/>
<path d="M63.3323 724.523H63.3311L63.2989 724.531L63.2644 724.539C59.9355 725.278 56.7434 725.747 53.8953 725.929C56.6387 728.261 60.4044 729.32 64.1856 728.466C67.9669 727.612 70.9114 725.036 72.386 721.753C69.7367 722.812 66.6553 723.761 63.3323 724.523Z" fill="black"/>
<defs>
<filter id="filter0_d_1_578" x="0" y="684" width="358" height="74" filterUnits="userSpaceOnUse" color-interpolation-filters="sRGB">
<feFlood flood-opacity="0" result="BackgroundImageFix"/>
<feColorMatrix in="SourceAlpha" type="matrix" values="0 0 0 0 0 0 0 0 0 0 0 0 0 0 0 0 0 0 127 0" result="hardAlpha"/>
<feOffset dy="4"/>
<feGaussianBlur stdDeviation="2"/>
<feComposite in2="hardAlpha" operator="out"/>
<feColorMatrix type="matrix" values="0 0 0 0 0 0 0 0 0 0 0 0 0 0 0 0 0 0 1 0"/>
<feBlend mode="normal" in2="BackgroundImageFix" result="effect1_dropShadow_1_578"/>
<feBlend mode="normal" in="SourceGraphic" in2="effect1_dropShadow_1_578" result="shape"/>
</filter>
</defs>
</svg>
