<svg width="80" height="50" viewBox="0 0 80 50" fill="none" xmlns="http://www.w3.org/2000/svg">
<path d="M62.0909 11.2843C63.0406 12.5122 63.8952 13.8282 64.6348 15.2222C68.6802 15.8814 71.1264 17.2314 70.9995 19.253C70.8677 21.3307 58.3823 27.2144 41.1241 31.1133C41.107 31.1158 41.0923 31.1182 41.0777 31.1232C23.8194 35.0221 10.0156 35.0758 9.00735 33.2569C8.02094 31.4844 9.64938 29.2139 13.0211 26.8799C13.087 25.3027 13.2897 23.75 13.6217 22.2314C4.59828 26.5113 -0.775311 31.2843 0.0914075 35.1196C2.0225 43.6694 20.9239 44.5288 42.9552 39.6361C42.9698 39.6336 42.9845 39.6288 42.9991 39.6263C43.0284 39.6189 43.0577 39.6141 43.087 39.6093C65.0817 34.5555 81.7808 25.6541 79.8472 17.1044C78.983 13.2691 72.0788 11.2696 62.0909 11.2843Z" fill="#0D0D0D"/>
<path d="M40.4138 28.2714C40.4138 28.2689 40.4163 28.2689 40.4163 28.2689C50.5238 25.9862 58.6706 23.0736 63.6463 20.8079C63.5877 20.4734 63.5217 20.1414 63.4484 19.8119C60.4894 6.71607 47.4742 -1.50408 34.3786 1.45498C21.283 4.41404 13.0675 17.429 16.0241 30.5223C16.0973 30.8544 16.1828 31.1815 16.2706 31.5087C21.7345 31.4159 30.3331 30.5467 40.4138 28.2714Z" fill="#0D0D0D"/>
<path d="M43.7584 42.4585H43.7559L43.69 42.4732L43.6192 42.4902C36.7906 44.0063 30.2428 44.9682 24.4005 45.3418C30.028 50.1244 37.7525 52.2972 45.5089 50.5468C53.2653 48.794 59.3053 43.5107 62.3302 36.7749C56.8956 38.9479 50.5748 40.8937 43.7584 42.4585Z" fill="#0D0D0D"/>
</svg>
