<svg width="266" height="168" viewBox="0 0 266 168" fill="none" xmlns="http://www.w3.org/2000/svg">
<path d="M206.452 35.0695C209.61 39.1525 212.451 43.528 214.911 48.1632C228.361 50.3551 236.495 54.8439 236.073 61.5656C235.635 68.4738 194.121 88.0373 136.737 101.001C136.681 101.009 136.632 101.017 136.583 101.034C79.1994 113.998 33.3019 114.176 29.9494 108.129C26.6696 102.235 32.0841 94.6857 43.2951 86.9249C43.5143 81.6808 44.1882 76.5182 45.2922 71.4689C15.2892 85.6994 -2.57796 101.569 0.303876 114.322C6.72476 142.75 69.5719 145.608 142.826 129.339C142.875 129.331 142.924 129.315 142.972 129.307C143.07 129.282 143.167 129.266 143.264 129.25C216.397 112.446 271.921 82.8492 265.492 54.4215C262.618 41.6691 239.662 35.0206 206.452 35.0695Z" fill="#FB0165"/>
<path d="M134.376 91.5524C134.376 91.5441 134.384 91.5441 134.384 91.5441C167.991 83.9543 195.08 74.2697 211.624 66.7365C211.429 65.6242 211.21 64.5202 210.966 63.4245C201.127 19.881 157.852 -7.45102 114.309 2.38786C70.7658 12.2267 43.4493 55.5016 53.2799 99.0368C53.5236 100.141 53.8078 101.229 54.0997 102.317C72.2672 102.008 100.858 99.1178 134.376 91.5524Z" fill="#FB0165"/>
<path d="M145.497 138.724H145.488L145.269 138.773L145.034 138.829C122.329 143.87 100.557 147.068 81.1315 148.311C99.8429 164.213 125.527 171.438 151.317 165.617C177.107 159.789 197.19 142.222 207.248 119.826C189.178 127.051 168.161 133.521 145.497 138.724Z" fill="#FB0165"/>
</svg>
