<svg width="726" height="489" viewBox="0 0 726 489" fill="none" xmlns="http://www.w3.org/2000/svg">
<g filter="url(#filter0_dd_14_202)">
<g clip-path="url(#clip0_14_202)">
<rect x="20" y="10" width="686" height="439" rx="20" fill="#D10F66"/>
<path d="M41 34.6938C38.6987 34.6938 36.8333 32.8284 36.8333 30.5271C36.8333 28.2259 38.6987 26.3605 41 26.3605C43.3012 26.3605 45.1666 28.2259 45.1666 30.5271C45.1666 32.8284 43.3012 34.6938 41 34.6938Z" fill="#040000"/>
<path d="M56 34.6938C53.6987 34.6938 51.8333 32.8284 51.8333 30.5271C51.8333 28.2259 53.6987 26.3605 56 26.3605C58.3012 26.3605 60.1666 28.2259 60.1666 30.5271C60.1666 32.8284 58.3012 34.6938 56 34.6938Z" fill="#040000"/>
<path d="M71 34.6938C68.6987 34.6938 66.8333 32.8284 66.8333 30.5271C66.8333 28.2259 68.6987 26.3605 71 26.3605C73.3012 26.3605 75.1666 28.2259 75.1666 30.5271C75.1666 32.8284 73.3012 34.6938 71 34.6938Z" fill="#040000"/>
<g filter="url(#filter1_dd_14_202)">
<rect x="20" y="51" width="686" height="398" fill="#DEDEDE" shape-rendering="crispEdges"/>
<path d="M20 51.5306H134.908V449H20V51.5306Z" fill="#FB0165"/>
<path d="M33.7889 89.208C33.7889 85.691 36.8757 82.84 40.6834 82.84H114.224C118.032 82.84 121.119 85.691 121.119 89.208V89.208C121.119 92.7249 118.032 95.576 114.224 95.576H40.6834C36.8757 95.576 33.7889 92.7249 33.7889 89.208V89.208Z" fill="black"/>
<path d="M61.3668 133.784C61.3668 132.026 62.9102 130.6 64.8141 130.6H122.268C124.172 130.6 125.715 132.026 125.715 133.784V133.784C125.715 135.542 124.172 136.968 122.268 136.968H64.8141C62.9102 136.968 61.3668 135.542 61.3668 133.784V133.784Z" fill="black"/>
<path d="M61.3668 167.747C61.3668 165.988 62.9102 164.563 64.8141 164.563H104.457C106.361 164.563 107.905 165.988 107.905 167.747V167.747C107.905 169.505 106.361 170.931 104.457 170.931H64.8141C62.9102 170.931 61.3668 169.505 61.3668 167.747V167.747Z" fill="black"/>
<path d="M61.3668 201.709C61.3668 199.951 62.9102 198.525 64.8141 198.525H114.224C116.128 198.525 117.672 199.951 117.672 201.709V201.709C117.672 203.468 116.128 204.893 114.224 204.893H64.8141C62.9102 204.893 61.3668 203.468 61.3668 201.709V201.709Z" fill="black"/>
<path d="M171.678 89.208C171.678 86.8633 173.736 84.9626 176.275 84.9626H242.921C245.46 84.9626 247.518 86.8633 247.518 89.208V89.208C247.518 91.5526 245.46 93.4533 242.921 93.4533H176.275C173.736 93.4533 171.678 91.5526 171.678 89.208V89.208Z" fill="#FB0165"/>
<path d="M171.678 264.328C171.678 261.983 173.736 260.083 176.275 260.083H207.3C209.838 260.083 211.896 261.983 211.896 264.328V264.328C211.896 266.673 209.838 268.573 207.3 268.573H176.275C173.736 268.573 171.678 266.673 171.678 264.328V264.328Z" fill="black"/>
<path d="M221.089 264.328C221.089 261.983 223.147 260.083 225.685 260.083H277.394C279.932 260.083 281.99 261.983 281.99 264.328V264.328C281.99 266.673 279.932 268.573 277.394 268.573H225.685C223.147 268.573 221.089 266.673 221.089 264.328V264.328Z" fill="#FB0165"/>
<path d="M171.678 305.72C171.678 303.962 173.222 302.536 175.126 302.536H223.387C225.291 302.536 226.834 303.962 226.834 305.72V305.72C226.834 307.478 225.291 308.904 223.387 308.904H175.126C173.222 308.904 171.678 307.478 171.678 305.72V305.72Z" fill="#FB0165"/>
<path d="M171.678 320.579C171.678 318.82 173.222 317.395 175.126 317.395H249.241C251.145 317.395 252.688 318.82 252.688 320.579V320.579C252.688 322.337 251.145 323.763 249.241 323.763H175.126C173.222 323.763 171.678 322.337 171.678 320.579V320.579Z" fill="#FB0165"/>
<path d="M236.027 305.72C236.027 303.962 237.57 302.536 239.474 302.536H296.928C298.832 302.536 300.375 303.962 300.375 305.72V305.72C300.375 307.478 298.832 308.904 296.928 308.904H239.474C237.57 308.904 236.027 307.478 236.027 305.72V305.72Z" fill="black"/>
<path d="M171.678 130.6C171.678 128.842 173.222 127.416 175.126 127.416H223.387C225.291 127.416 226.834 128.842 226.834 130.6V130.6C226.834 132.358 225.291 133.784 223.387 133.784H175.126C173.222 133.784 171.678 132.358 171.678 130.6V130.6Z" fill="black"/>
<path d="M171.678 145.459C171.678 143.7 173.222 142.275 175.126 142.275H294.055C295.959 142.275 297.503 143.7 297.503 145.459V145.459C297.503 147.217 295.959 148.643 294.055 148.643H175.126C173.222 148.643 171.678 147.217 171.678 145.459V145.459Z" fill="black"/>
<path d="M236.027 130.6C236.027 128.842 237.57 127.416 239.474 127.416H370.469C372.373 127.416 373.916 128.842 373.916 130.6V130.6C373.916 132.358 372.373 133.784 370.469 133.784H239.474C237.57 133.784 236.027 132.358 236.027 130.6V130.6Z" fill="#FB0165"/>
</g>
</g>
</g>
<path d="M49.8511 127.269C50.1242 127.622 50.3699 128.001 50.5825 128.401C51.7455 128.591 52.4488 128.979 52.4124 129.56C52.3744 130.158 48.7849 131.849 43.8232 132.97C43.8183 132.971 43.814 132.971 43.8098 132.973C38.8481 134.094 34.8795 134.109 34.5896 133.586C34.306 133.077 34.7742 132.424 35.7436 131.753C35.7625 131.299 35.8208 130.853 35.9162 130.417C33.322 131.647 31.7771 133.019 32.0263 134.122C32.5815 136.58 38.0156 136.827 44.3496 135.42C44.3538 135.42 44.358 135.418 44.3622 135.418C44.3707 135.415 44.3791 135.414 44.3875 135.413C50.711 133.96 55.512 131.401 54.9561 128.942C54.7076 127.84 52.7226 127.265 49.8511 127.269Z" fill="black"/>
<path d="M43.619 132.153C43.619 132.152 43.6197 132.152 43.6197 132.152C46.5256 131.496 48.8678 130.659 50.2983 130.007C50.2815 129.911 50.2625 129.816 50.2414 129.721C49.3907 125.956 45.6488 123.593 41.8839 124.443C38.1189 125.294 35.7569 129.036 36.6069 132.8C36.628 132.896 36.6526 132.99 36.6778 133.084C38.2487 133.057 40.7208 132.807 43.619 132.153Z" fill="black"/>
<path d="M44.5806 136.232H44.5798L44.5609 136.236L44.5405 136.241C42.5773 136.677 40.6948 136.953 39.0151 137.061C40.633 138.436 42.8538 139.06 45.0838 138.557C47.3138 138.053 49.0503 136.534 49.9199 134.598C48.3575 135.223 46.5403 135.782 44.5806 136.232Z" fill="black"/>
<defs>
<filter id="filter0_dd_14_202" x="0" y="0" width="726" height="489" filterUnits="userSpaceOnUse" color-interpolation-filters="sRGB">
<feFlood flood-opacity="0" result="BackgroundImageFix"/>
<feColorMatrix in="SourceAlpha" type="matrix" values="0 0 0 0 0 0 0 0 0 0 0 0 0 0 0 0 0 0 127 0" result="hardAlpha"/>
<feOffset/>
<feGaussianBlur stdDeviation="5"/>
<feColorMatrix type="matrix" values="0 0 0 0 0 0 0 0 0 0 0 0 0 0 0 0 0 0 0.07 0"/>
<feBlend mode="normal" in2="BackgroundImageFix" result="effect1_dropShadow_14_202"/>
<feColorMatrix in="SourceAlpha" type="matrix" values="0 0 0 0 0 0 0 0 0 0 0 0 0 0 0 0 0 0 127 0" result="hardAlpha"/>
<feMorphology radius="5" operator="erode" in="SourceAlpha" result="effect2_dropShadow_14_202"/>
<feOffset dy="20"/>
<feGaussianBlur stdDeviation="12.5"/>
<feColorMatrix type="matrix" values="0 0 0 0 0 0 0 0 0 0 0 0 0 0 0 0 0 0 0.1 0"/>
<feBlend mode="normal" in2="effect1_dropShadow_14_202" result="effect2_dropShadow_14_202"/>
<feBlend mode="normal" in="SourceGraphic" in2="effect2_dropShadow_14_202" result="shape"/>
</filter>
<filter id="filter1_dd_14_202" x="-18" y="36" width="762" height="476" filterUnits="userSpaceOnUse" color-interpolation-filters="sRGB">
<feFlood flood-opacity="0" result="BackgroundImageFix"/>
<feColorMatrix in="SourceAlpha" type="matrix" values="0 0 0 0 0 0 0 0 0 0 0 0 0 0 0 0 0 0 127 0" result="hardAlpha"/>
<feOffset/>
<feGaussianBlur stdDeviation="7.5"/>
<feComposite in2="hardAlpha" operator="out"/>
<feColorMatrix type="matrix" values="0 0 0 0 0 0 0 0 0 0 0 0 0 0 0 0 0 0 0.07 0"/>
<feBlend mode="normal" in2="BackgroundImageFix" result="effect1_dropShadow_14_202"/>
<feColorMatrix in="SourceAlpha" type="matrix" values="0 0 0 0 0 0 0 0 0 0 0 0 0 0 0 0 0 0 127 0" result="hardAlpha"/>
<feMorphology radius="12" operator="erode" in="SourceAlpha" result="effect2_dropShadow_14_202"/>
<feOffset dy="25"/>
<feGaussianBlur stdDeviation="25"/>
<feColorMatrix type="matrix" values="0 0 0 0 0 0 0 0 0 0 0 0 0 0 0 0 0 0 0.25 0"/>
<feBlend mode="normal" in2="effect1_dropShadow_14_202" result="effect2_dropShadow_14_202"/>
<feBlend mode="normal" in="SourceGraphic" in2="effect2_dropShadow_14_202" result="shape"/>
</filter>
<clipPath id="clip0_14_202">
<rect x="20" y="10" width="686" height="439" rx="20" fill="white"/>
</clipPath>
</defs>
</svg>
